<?xml version="1.0" encoding="UTF-8" standalone="no"?>
<!-- Created with Inkscape (http://www.inkscape.org/) -->

<svg
   width="176.745mm"
   height="110mm"
   viewBox="0 0 176.74499 110"
   version="1.1"
   id="svg1"
   xml:space="preserve"
   inkscape:version="1.3 (0e150ed6c4, 2023-07-21)"
   sodipodi:docname="icon_white.svg"
   xmlns:inkscape="http://www.inkscape.org/namespaces/inkscape"
   xmlns:sodipodi="http://sodipodi.sourceforge.net/DTD/sodipodi-0.dtd"
   xmlns="http://www.w3.org/2000/svg"
   xmlns:svg="http://www.w3.org/2000/svg"><sodipodi:namedview
     id="namedview1"
     pagecolor="#ffffff"
     bordercolor="#000000"
     borderopacity="0.25"
     inkscape:showpageshadow="2"
     inkscape:pageopacity="0.0"
     inkscape:pagecheckerboard="true"
     inkscape:deskcolor="#d1d1d1"
     inkscape:document-units="mm"
     inkscape:zoom="1.4142136"
     inkscape:cx="221.67798"
     inkscape:cy="136.11806"
     inkscape:window-width="1920"
     inkscape:window-height="1017"
     inkscape:window-x="-8"
     inkscape:window-y="2152"
     inkscape:window-maximized="1"
     inkscape:current-layer="layer3"
     showguides="true"><sodipodi:guide
       position="208.214,153.8643"
       orientation="0,-1"
       id="guide2"
       inkscape:locked="false" /></sodipodi:namedview><defs
     id="defs1"><rect
       x="69.296463"
       y="403.05087"
       width="1165.8376"
       height="69.882263"
       id="rect15" /></defs><g
     inkscape:groupmode="layer"
     id="layer3"
     inkscape:label="Car"
     transform="translate(-20.121404,-22.114284)"><path
       style="fill:#8895dc;fill-opacity:1;stroke:none;stroke-width:1.27171;stroke-linecap:round;stroke-linejoin:round;paint-order:fill markers stroke"
       d="m 82.287705,52.140152 -9.099107,-8.210187 8.34495,-0.07461 c 4.589722,-0.04104 11.99143,-0.04104 16.448244,0 l 8.103308,0.07461 -6.04648,6.757633 c -3.325548,3.716698 -6.632655,7.411282 -7.34913,8.210187 l -1.302678,1.452555 z"
       id="path2"
       inkscape:label="13" /><path
       style="fill:#2137aa;fill-opacity:1;stroke:none;stroke-width:0.915368;stroke-linecap:round;stroke-linejoin:round;stroke-opacity:1;paint-order:fill markers stroke"
       d="m 79.632783,71.305895 c -0.351167,-0.935587 -7.776319,-23.525952 -7.776319,-23.658757 0,-0.129394 13.422255,12.196296 15.888602,14.590544 l 0.654952,0.635805 -4.328331,4.363499 c -2.939602,2.963485 -4.36381,4.268986 -4.438904,4.068909 z"
       id="path3"
       inkscape:label="12" /><path
       style="fill:#2137aa;fill-opacity:1;stroke:none;stroke-width:1.37563;stroke-linecap:round;stroke-linejoin:round;stroke-opacity:1;paint-order:fill markers stroke"
       d="m 72.10175,86.071451 c -1.565864,-4.218646 -2.908494,-7.841105 -2.983625,-8.049895 -0.104647,-0.290817 0.764338,-0.379637 3.71418,-0.379637 h 3.850779 l -0.0085,0.835194 c -0.01332,1.311364 -1.460411,15.000716 -1.600434,15.139936 -0.06897,0.0686 -1.406555,-3.326942 -2.972419,-7.545598 z"
       id="path4"
       inkscape:label="11" /><path
       style="fill:#2137aa;fill-opacity:1;stroke:none;stroke-width:1.4513;stroke-linecap:round;stroke-linejoin:round;stroke-opacity:1;paint-order:fill markers stroke"
       d="m 129.69975,87.580652 c -4.73335,-3.297422 -8.61578,-6.121804 -8.62762,-6.276394 -0.0263,-0.34281 12.2904,-10.231943 12.49224,-10.030113 0.15455,0.154557 4.90254,22.148314 4.80203,22.244124 -0.0333,0.0317 -3.9333,-2.640185 -8.66665,-5.937617 z"
       id="path5"
       inkscape:label="10" /><path
       style="fill:#2137aa;fill-opacity:1;stroke:none;stroke-width:1.50569;stroke-linecap:round;stroke-linejoin:round;stroke-opacity:1;paint-order:fill markers stroke"
       d="m 159.26735,105.1354 0.0967,-2.09236 1.78302,-0.69916 c 2.28162,-0.89466 5.16911,-3.854281 6.00015,-6.150006 l 0.58829,-1.625131 h 2.05175 2.05173 l -0.44767,1.566731 c -0.67778,2.372025 -2.40426,5.152896 -4.39373,7.077026 -1.85949,1.79842 -5.76365,4.01526 -7.07142,4.01526 -0.71901,0 -0.75086,-0.10117 -0.65884,-2.09236 z"
       id="path7"
       inkscape:label="9" /><path
       style="fill:#2137aa;fill-opacity:1;stroke:none;stroke-width:1.35643;stroke-linecap:round;stroke-linejoin:round;stroke-opacity:1;paint-order:fill markers stroke"
       d="m 156.38765,107.02094 c -4.86616,-1.21832 -8.9986,-5.2677 -10.39591,-10.186932 -0.25898,-0.911774 -0.47089,-1.701508 -0.47089,-1.754968 0,-0.0535 0.90329,-0.0972 2.00731,-0.0972 l 2.70182,0.0662 0.34002,1.312991 c 0.79683,3.076975 2.73931,4.519389 6.05301,5.598219 l 1.6049,0.5225 v 3.08571 c 0,1.06048 -0.0332,1.9167 -0.0738,1.90272 -0.0406,-0.014 -0.83551,-0.21612 -1.76637,-0.44918 z"
       id="path8"
       sodipodi:nodetypes="sssscsscssss"
       inkscape:label="8" /><path
       style="fill:#2137aa;fill-opacity:1;stroke:none;stroke-width:1.46034;stroke-linecap:round;stroke-linejoin:round;stroke-opacity:1;paint-order:fill markers stroke"
       d="m 58.356943,105.83387 c -0.411172,-2.42385 -0.297333,-2.86585 0.850607,-3.30268 3.330682,-1.26743 4.400839,-4.436798 6.178421,-6.626246 l 0.01447,-1.436381 3.26788,0.0935 h 2.192124 l -0.412459,1.515761 c -1.11131,4.084026 -4.116914,7.722976 -7.83061,9.480686 -1.289793,0.61046 -2.729472,1.1966 -3.199287,1.30254 -0.783557,0.17668 -0.871328,0.0917 -1.061141,-1.02722 z"
       id="path9"
       sodipodi:nodetypes="ssscccssss"
       inkscape:label="7" /><path
       style="fill:#2137aa;fill-opacity:1;stroke:none;stroke-width:1.60819;stroke-linecap:round;stroke-linejoin:round;stroke-opacity:1;paint-order:fill markers stroke"
       d="m 55.400274,107.19442 c -5.590012,-1.50451 -9.450186,-5.19414 -11.282929,-10.784409 -0.402682,-1.228271 -0.639406,-2.387405 -0.526057,-2.575855 0.113344,-0.188457 1.116082,-0.342647 2.228297,-0.342647 l 2.891532,-0.0569 -0.03523,2.124768 c -0.02041,1.230954 1.475764,2.786005 2.260024,3.663779 1.464377,1.638984 5.008909,3.651964 6.431417,3.652474 0.744316,2.7e-4 0.790341,0.14742 0.790341,2.52686 0,1.38962 -0.03952,2.51763 -0.08782,2.5067 -0.04829,-0.0109 -1.249608,-0.33256 -2.669577,-0.71474 z"
       id="path10"
       sodipodi:nodetypes="sssscsssssss"
       inkscape:label="6" /><path
       style="fill:#8895dc;fill-opacity:1;stroke:none;stroke-width:1.37326;stroke-linecap:round;stroke-linejoin:round;stroke-opacity:1;paint-order:fill markers stroke"
       d="m 27.984716,95.711167 c 9.359029,-12.332251 8.827085,-11.714784 11.310353,-13.128878 1.281049,-0.729504 2.486225,-1.389441 2.678167,-1.466531 0.191943,-0.0771 -0.986362,3.396072 -2.618455,7.718138 l -2.96744,7.858325 -4.637513,0.0843 -4.63751,0.0842 z"
       id="path11"
       inkscape:label="5" /><path
       style="fill:#8895dc;fill-opacity:1;stroke:none;stroke-width:1.57087;stroke-linecap:round;stroke-linejoin:round;stroke-opacity:1;paint-order:fill markers stroke"
       d="m 181.22368,96.549101 c 0.68598,-0.705547 3.45035,-3.668829 6.14305,-6.585064 2.6927,-2.916242 5.26682,-5.683587 5.72024,-6.149674 l 0.8244,-0.847434 v 7.432488 7.432488 h -6.96745 -6.96747 z"
       id="path12"
       inkscape:label="4" /><path
       style="fill:#8895dc;fill-opacity:1;stroke:none;stroke-width:1.3797;stroke-linecap:round;stroke-linejoin:round;stroke-opacity:1;paint-order:fill markers stroke"
       d="m 107.76742,96.747731 -5.7275,-0.16297 7.85936,-6.415054 c 4.32264,-3.528279 8.00776,-6.400344 8.18916,-6.382374 0.18139,0.018 4.50576,2.904745 9.60971,6.415044 l 9.27991,6.382384 -4.86832,0.18774 c -5.6636,0.218407 -16.17127,0.207707 -24.34232,-0.0248 z"
       id="path13"
       inkscape:label="3" /><path
       style="fill:#8895dc;fill-opacity:1;stroke:none;stroke-width:1.28796;stroke-linecap:round;stroke-linejoin:round;stroke-opacity:1;paint-order:fill markers stroke"
       d="m 79.333209,95.634827 c 0.08173,-0.431317 0.368314,-4.120646 0.63686,-8.198525 0.268546,-4.077866 0.564767,-7.496108 0.658267,-7.596095 0.145913,-0.15603 12.549645,15.65693 12.812334,16.333867 0.05228,0.134727 -3.133944,0.244957 -7.080499,0.244957 h -7.175556 z"
       id="path14"
       inkscape:label="2" /><path
       style="fill:#2137aa;fill-opacity:1;stroke:none;stroke-width:1.40548;stroke-linecap:round;stroke-linejoin:round;stroke-opacity:1;paint-order:fill markers stroke"
       d="m 30.51223,66.163242 c -1.552827,-2.625846 -2.780028,-4.818709 -2.727115,-4.873035 0.133916,-0.137483 18.972754,0.481377 21.410818,0.703351 l 1.989805,0.181164 -8.717308,4.38139 c -4.79452,2.409765 -8.810811,4.381393 -8.925089,4.381393 -0.114282,0 -1.478281,-2.148418 -3.031111,-4.774263 z"
       id="path15"
       inkscape:label="1" /><path
       style="fill:#ffffff;fill-opacity:1"
       d="m 25.351961,106.13217 16.777616,-0.1323 -5.468046,-5.28854 -14.930945,-0.004 -0.1503,-13.096898 8.90653,-13.725262 -10.365412,-15.775779 8.956201,-0.1446 38.11447,-18.092995 43.832305,-0.05839 40.82861,23.169485 45.00725,14.573368 0.006,23.151071 -18.91771,0.006 -5.33507,5.24504 17.33958,0.20508 c 4.53889,-0.0831 4.47717,5.14371 -0.0585,5.15832 l -164.527905,-0.0532 c -3.844967,0.11879 -4.8201,-5.11673 -0.01465,-5.1364 z m 112.115879,-5.41567 -60.060446,-10e-4 -5.15938,5.28465 h 70.908366 z m 20.05869,2.12724 c -4.87021,-0.79076 -7.19619,-4.284561 -7.62105,-7.311503 -1.09288,0.01 -2.60818,-0.1004 -3.89774,-0.0789 0.85923,6.173603 5.90365,10.506163 11.54595,10.997903 z M 55.987921,102.73215 c -3.858369,-0.68657 -6.746773,-2.973327 -7.614712,-7.005123 -1.074942,0.0474 -2.70768,-0.0123 -3.765154,0.170087 1.084303,6.213046 5.419054,9.929296 11.403745,10.589246 z m 9.773953,-7.117633 c -1.011497,4.618263 -4.227377,6.204453 -6.718139,6.967883 l 0.07487,3.76856 c 5.554255,-0.87373 9.605214,-5.27832 10.37166,-10.646183 z m 105.086436,0.641277 -3.60464,0.0371 c -0.84404,3.040202 -3.28794,5.641776 -6.93903,6.485296 l 0.0345,3.66066 c 3.56139,-0.2429 9.53668,-4.15181 10.50913,-10.183106 z M 41.915867,81.823155 36.778505,84.761767 28.032647,96.210634 h 8.438876 z m 38.664857,-1.919271 -1.18902,16.30651 h 13.79436 z m 37.549556,4.121239 -14.9732,12.185531 32.89832,0.113037 z m 74.50889,0.0892 -10.90593,12.096291 h 10.90028 l 0.006,-12.096291 z m -46.6224,8.668979 c 2.14429,0.0247 2.85615,0.12002 3.85138,0.12002 1.90883,-9.946353 15.46998,-10.971757 17.63436,0.529167 0.55194,-0.0276 1.60237,-0.14796 3.57871,-0.19056 -1.66951,-16.177117 -23.11348,-15.64571 -25.06445,-0.458647 z m -101.511869,0.163 3.772676,0.0307 c 0.948906,-9.604766 15.404456,-11.238887 17.515304,-0.27419 l 3.714385,-0.0454 C 67.436143,77.576059 46.294652,77.779856 44.504901,92.946332 Z M 114.68128,81.199628 94.225774,68.059173 98.970892,93.300169 Z m 75.46859,0.10739 -15.48398,0.343337 3.7629,11.784314 z m -113.616606,-3.352692 -7.146093,0.0579 5.638273,15.155683 1.50782,-15.213553 z m 13.446456,-10.74541 -7.973576,8.005055 13.07949,16.850664 z m 42.98097,5.4779 -11.00595,8.777992 15.15526,10.5285 z m -103.863116,15.085406 -2.62251,1.905788 0.0118,1.997288 z m 119.273586,-18.595985 -11.43253,0.744214 3.9582,20.171646 z m -109.697521,9.396026 -4.81718,-2.284328 -7.177384,9.335439 z M 129.27864,70.133341 99.848162,66.492742 118.15321,78.656313 Z m 29.15648,0.008 14.22226,7.768185 11.32906,0.0448 z m -6.05144,-0.592387 -2.61267,7.082531 h 15.08308 z m -96.270264,-5.368823 -19.345675,9.761119 35.068733,0.0444 z m 31.93716,-1.35527 -15.904802,-14.622594 3.95478,11.826614 3.67182,11.046354 h 0.0179 0.0179 z M 67.111545,45.934824 59.705869,61.070161 75.363684,70.809968 Z m -17.185203,16.651017 -21.386046,-0.71524 5.284547,8.677887 z M 109.6357,45.614382 95.996682,61.574191 129.49697,65.783065 Z m 38.07134,19.970299 -31.54037,-18.963737 19.30326,19.543728 z M 105.49611,44.104252 73.560708,44.090504 91.283087,60.024721 Z m -44.099891,3.158172 -23.469474,10.737817 17.510088,0.50684 z"
       id="path1"
       sodipodi:nodetypes="ccccccccccccccccccccccccccccccccccccccccccccccccccccccccccccccccccccccccccccccccccccccccccccccccccccccccccccccccccccccccccccccccccccccccccccccccccccccccccc"
       inkscape:label="car" /></g></svg>
