<?xml version="1.0" encoding="UTF-8" standalone="no"?>
<!-- Created with Inkscape (http://www.inkscape.org/) -->

<svg
   width="310mm"
   height="130mm"
   viewBox="0 0 310 130"
   version="1.1"
   id="svg1"
   xml:space="preserve"
   inkscape:version="1.3 (0e150ed6c4, 2023-07-21)"
   sodipodi:docname="logo.svg"
   xmlns:inkscape="http://www.inkscape.org/namespaces/inkscape"
   xmlns:sodipodi="http://sodipodi.sourceforge.net/DTD/sodipodi-0.dtd"
   xmlns="http://www.w3.org/2000/svg"
   xmlns:svg="http://www.w3.org/2000/svg"><sodipodi:namedview
     id="namedview1"
     pagecolor="#ffffff"
     bordercolor="#000000"
     borderopacity="0.25"
     inkscape:showpageshadow="2"
     inkscape:pageopacity="0.0"
     inkscape:pagecheckerboard="0"
     inkscape:deskcolor="#d1d1d1"
     inkscape:document-units="mm"
     inkscape:zoom="0.70710678"
     inkscape:cx="600.33366"
     inkscape:cy="127.98633"
     inkscape:window-width="1920"
     inkscape:window-height="1017"
     inkscape:window-x="-8"
     inkscape:window-y="2152"
     inkscape:window-maximized="1"
     inkscape:current-layer="layer3"
     showguides="true"><sodipodi:guide
       position="268.81252,166.94691"
       orientation="0,-1"
       id="guide2"
       inkscape:locked="false" /></sodipodi:namedview><defs
     id="defs1"><rect
       x="69.296463"
       y="403.05087"
       width="1165.8377"
       height="69.882261"
       id="rect15" /></defs><g
     inkscape:groupmode="layer"
     id="layer3"
     inkscape:label="Car"
     transform="translate(40.477116,-17.351783)"><path
       style="fill:#8895dc;fill-opacity:1;stroke:none;stroke-width:1.27171;stroke-linecap:round;stroke-linejoin:round;paint-order:fill markers stroke"
       d="m 82.287705,34.44103 -9.099107,-8.210187 8.34495,-0.07461 c 4.589722,-0.04104 11.99143,-0.04104 16.448244,0 l 8.103308,0.07461 -6.04648,6.757633 c -3.325548,3.716698 -6.632655,7.411282 -7.34913,8.210187 l -1.302678,1.452555 z"
       id="path2"
       inkscape:label="13" /><path
       style="fill:#2137aa;fill-opacity:1;stroke:none;stroke-width:0.915368;stroke-linecap:round;stroke-linejoin:round;stroke-opacity:1;paint-order:fill markers stroke"
       d="m 79.632783,53.606776 c -0.351167,-0.935587 -7.776319,-23.525955 -7.776319,-23.65876 0,-0.129394 13.422255,12.196296 15.888602,14.590544 l 0.654952,0.635805 -4.328331,4.3635 c -2.939602,2.963486 -4.36381,4.268984 -4.438904,4.068911 z"
       id="path3"
       inkscape:label="12" /><path
       style="fill:#2137aa;fill-opacity:1;stroke:none;stroke-width:1.37563;stroke-linecap:round;stroke-linejoin:round;stroke-opacity:1;paint-order:fill markers stroke"
       d="m 72.10175,68.372331 c -1.565864,-4.218649 -2.908494,-7.841103 -2.983625,-8.049901 -0.104647,-0.290813 0.764338,-0.379631 3.71418,-0.379631 h 3.850779 l -0.0085,0.835189 c -0.01332,1.311364 -1.460411,15.000707 -1.600434,15.139931 -0.06897,0.06856 -1.406555,-3.326939 -2.972419,-7.545588 z"
       id="path4"
       inkscape:label="11" /><path
       style="fill:#2137aa;fill-opacity:1;stroke:none;stroke-width:1.4513;stroke-linecap:round;stroke-linejoin:round;stroke-opacity:1;paint-order:fill markers stroke"
       d="m 129.69975,69.881532 c -4.73335,-3.297424 -8.61578,-6.121805 -8.62762,-6.2764 -0.0263,-0.342808 12.2904,-10.231942 12.49224,-10.030109 0.15455,0.15456 4.90254,22.148304 4.80203,22.244109 -0.0333,0.03175 -3.9333,-2.640177 -8.66665,-5.9376 z"
       id="path5"
       inkscape:label="10" /><path
       style="fill:#2137aa;fill-opacity:1;stroke:none;stroke-width:1.50569;stroke-linecap:round;stroke-linejoin:round;stroke-opacity:1;paint-order:fill markers stroke"
       d="m 159.26735,87.436209 0.0967,-2.092343 1.78302,-0.69915 c 2.28162,-0.894652 5.16911,-3.85426 6.00015,-6.149978 l 0.58829,-1.625135 h 2.05175 2.05173 l -0.44767,1.566733 c -0.67778,2.372017 -2.40426,5.152873 -4.39373,7.076992 -1.85949,1.798405 -5.76365,4.015223 -7.07142,4.015223 -0.71901,0 -0.75086,-0.101161 -0.65884,-2.092342 z"
       id="path7"
       inkscape:label="9" /><path
       style="fill:#2137aa;fill-opacity:1;stroke:none;stroke-width:1.35643;stroke-linecap:round;stroke-linejoin:round;stroke-opacity:1;paint-order:fill markers stroke"
       d="m 156.38765,89.321735 c -4.86616,-1.218313 -8.9986,-5.267652 -10.39591,-10.18687 -0.25898,-0.911765 -0.47089,-1.701498 -0.47089,-1.754961 0,-0.05347 0.90329,-0.09721 2.00731,-0.09721 l 2.70182,0.06615 0.34002,1.312993 c 0.79683,3.076964 2.73931,4.519365 6.05301,5.598187 l 1.6049,0.522497 v 3.085684 c 0,1.060473 -0.0332,1.916689 -0.0738,1.902705 -0.0406,-0.01398 -0.83551,-0.216115 -1.76637,-0.44917 z"
       id="path8"
       sodipodi:nodetypes="sssscsscssss"
       inkscape:label="8" /><path
       style="fill:#2137aa;fill-opacity:1;stroke:none;stroke-width:1.46034;stroke-linecap:round;stroke-linejoin:round;stroke-opacity:1;paint-order:fill markers stroke"
       d="m 58.356943,88.134675 c -0.411172,-2.423828 -0.297333,-2.865826 0.850607,-3.302652 3.330682,-1.267425 4.400839,-4.436772 6.178421,-6.626221 l 0.01447,-1.436376 3.26788,0.09354 h 2.192124 l -0.412459,1.51576 c -1.11131,4.084013 -4.116914,7.722941 -7.83061,9.480632 -1.289793,0.610456 -2.729472,1.196596 -3.199287,1.302529 -0.783557,0.176677 -0.871328,0.09171 -1.061141,-1.027216 z"
       id="path9"
       sodipodi:nodetypes="ssscccssss"
       inkscape:label="7" /><path
       style="fill:#2137aa;fill-opacity:1;stroke:none;stroke-width:1.60819;stroke-linecap:round;stroke-linejoin:round;stroke-opacity:1;paint-order:fill markers stroke"
       d="m 55.400274,89.495218 c -5.590012,-1.504501 -9.450186,-5.1941 -11.282929,-10.784352 -0.402682,-1.228262 -0.639406,-2.387391 -0.526057,-2.575848 0.113344,-0.188453 1.116082,-0.342645 2.228297,-0.342645 l 2.891532,-0.05693 -0.03523,2.124762 c -0.02041,1.23095 1.475764,2.786002 2.260024,3.663771 1.464377,1.638975 5.008909,3.651946 6.431417,3.652457 0.744316,2.68e-4 0.790341,0.147418 0.790341,2.52684 0,1.389603 -0.03952,2.51761 -0.08782,2.506682 -0.04829,-0.01088 -1.249608,-0.33256 -2.669577,-0.714735 z"
       id="path10"
       sodipodi:nodetypes="sssscsssssss"
       inkscape:label="6" /><path
       style="fill:#8895dc;fill-opacity:1;stroke:none;stroke-width:1.37326;stroke-linecap:round;stroke-linejoin:round;stroke-opacity:1;paint-order:fill markers stroke"
       d="m 27.984716,78.01203 c 9.359029,-12.332235 8.827085,-11.714765 11.310353,-13.128866 1.281049,-0.729498 2.486225,-1.389433 2.678167,-1.466524 0.191943,-0.0771 -0.986362,3.396067 -2.618455,7.718133 l -2.96744,7.858305 -4.637513,0.08425 -4.63751,0.08425 z"
       id="path11"
       inkscape:label="5" /><path
       style="fill:#8895dc;fill-opacity:1;stroke:none;stroke-width:1.57087;stroke-linecap:round;stroke-linejoin:round;stroke-opacity:1;paint-order:fill markers stroke"
       d="m 181.22368,78.849956 c 0.68598,-0.70554 3.45035,-3.668811 6.14305,-6.585046 2.6927,-2.916234 5.26682,-5.683586 5.72024,-6.14967 l 0.8244,-0.847428 v 7.432474 7.432471 h -6.96745 -6.96747 z"
       id="path12"
       inkscape:label="4" /><path
       style="fill:#8895dc;fill-opacity:1;stroke:none;stroke-width:1.3797;stroke-linecap:round;stroke-linejoin:round;stroke-opacity:1;paint-order:fill markers stroke"
       d="m 107.76742,79.048584 -5.7275,-0.162963 7.85936,-6.415041 c 4.32264,-3.528272 8.00776,-6.400338 8.18916,-6.382366 0.18139,0.01796 4.50576,2.904739 9.60971,6.41504 l 9.27991,6.382367 -4.86832,0.187737 c -5.6636,0.218408 -16.17127,0.207713 -24.34232,-0.02477 z"
       id="path13"
       inkscape:label="3" /><path
       style="fill:#8895dc;fill-opacity:1;stroke:none;stroke-width:1.28796;stroke-linecap:round;stroke-linejoin:round;stroke-opacity:1;paint-order:fill markers stroke"
       d="m 79.333209,77.935685 c 0.08173,-0.431313 0.368314,-4.12064 0.63686,-8.198505 0.268546,-4.077864 0.564767,-7.496107 0.658267,-7.596092 0.145913,-0.156034 12.549645,15.656907 12.812334,16.333847 0.05228,0.134724 -3.133944,0.244954 -7.080499,0.244954 h -7.175556 z"
       id="path14"
       inkscape:label="2" /><path
       style="fill:#2137aa;fill-opacity:1;stroke:none;stroke-width:1.40548;stroke-linecap:round;stroke-linejoin:round;stroke-opacity:1;paint-order:fill markers stroke"
       d="m 30.51223,48.464119 c -1.552827,-2.625845 -2.780028,-4.818708 -2.727115,-4.873034 0.133916,-0.137483 18.972754,0.481377 21.410818,0.703351 l 1.989805,0.181164 -8.717308,4.38139 c -4.79452,2.409765 -8.810811,4.381391 -8.925089,4.381391 -0.114282,0 -1.478281,-2.148418 -3.031111,-4.774262 z"
       id="path15"
       inkscape:label="1" /><path
       style="fill:#000000;fill-opacity:1"
       d="m 25.351961,88.432971 16.777616,-0.132292 -5.468046,-5.2885 -14.930945,-0.004 -0.1503,-13.09687 8.90653,-13.72526 -10.365412,-15.77578 8.956201,-0.1446 38.11447,-18.092995 43.832305,-0.05839 40.82861,23.169485 45.00725,14.57337 0.006,23.15104 -18.91771,0.006 -5.33507,5.245 17.33958,0.205073 c 4.53889,-0.08309 4.47717,5.143676 -0.0585,5.158277 l -164.527905,-0.0532 c -3.844967,0.118791 -4.8201,-5.116683 -0.01465,-5.136358 z m 112.115879,-5.415622 -60.060446,-10e-4 -5.15938,5.28461 h 70.908366 z m 20.05869,2.12722 c -4.87021,-0.79075 -7.19619,-4.284529 -7.62105,-7.31147 -1.09288,0.01 -2.60818,-0.100403 -3.89774,-0.07891 0.85923,6.173579 5.90365,10.50611 11.54595,10.997841 z M 55.987921,85.032977 c -3.858369,-0.686557 -6.746773,-2.973299 -7.614712,-7.00509 -1.074942,0.0474 -2.70768,-0.01226 -3.765154,0.170092 1.084303,6.213015 5.419054,9.929236 11.403745,10.589185 z m 9.773953,-7.117594 c -1.011497,4.618247 -4.227377,6.20443 -6.718139,6.967852 l 0.07487,3.768529 c 5.554255,-0.873727 9.605214,-5.278277 10.37166,-10.646132 z m 105.086436,0.641271 -3.60464,0.03715 c -0.84404,3.040196 -3.28794,5.641758 -6.93903,6.485261 l 0.0345,3.660634 c 3.56139,-0.242898 9.53668,-4.151771 10.50913,-10.18305 z M 41.915867,64.124029 l -5.137362,2.93862 -8.745858,11.44884 h 8.438876 z m 38.664857,-1.91927 -1.18902,16.30649 h 13.79436 z m 37.549556,4.12124 -14.9732,12.18551 32.89832,0.11304 z m 74.50889,0.0892 -10.90593,12.09627 h 10.90028 l 0.006,-12.09627 z m -46.6224,8.66897 c 2.14429,0.02469 2.85615,0.120019 3.85138,0.120019 1.90883,-9.946343 15.46998,-10.971749 17.63436,0.529171 0.55194,-0.0276 1.60237,-0.147961 3.57871,-0.190561 -1.66951,-16.177103 -23.11348,-15.645701 -25.06445,-0.458649 z m -101.511869,0.163 3.772676,0.03075 c 0.948906,-9.604756 15.404456,-11.238872 17.515304,-0.274186 l 3.714385,-0.04537 C 67.436143,59.876936 46.294652,60.080737 44.504901,75.247199 Z m 70.176379,-11.74666 -20.455506,-13.14046 4.745118,25.24099 z m 75.46859,0.10739 -15.48398,0.34333 3.7629,11.78431 z m -113.616606,-3.35269 -7.146093,0.0579 5.638273,15.15567 1.50782,-15.21354 z m 13.446456,-10.74541 -7.973576,8.00505 13.07949,16.85066 z m 42.98097,5.4779 -11.00595,8.77799 15.15526,10.52849 z m -103.863116,15.0854 -2.62251,1.90579 0.0118,1.99728 z m 119.273586,-18.59598 -11.43253,0.74421 3.9582,20.17164 z m -109.697521,9.39602 -4.81718,-2.28433 -7.177384,9.33544 z m 90.605001,-8.43892 -29.430478,-3.6406 18.305048,12.16357 z m 29.15648,0.008 14.22226,7.76819 11.32906,0.0448 z m -6.05144,-0.59239 -2.61267,7.08253 h 15.08308 z m -96.270264,-5.36882 -19.345675,9.76112 35.068733,0.0444 z m 31.93716,-1.35527 -15.904802,-14.622594 3.95478,11.826614 3.67182,11.04635 h 0.0179 0.0179 z m -20.939031,-16.890037 -7.405676,15.135337 15.657815,9.73981 z m -17.185203,16.651017 -21.386046,-0.71524 5.284547,8.67789 z M 109.6357,27.91526 95.996682,43.875069 l 33.500288,4.20887 z m 38.07134,19.970299 -31.54037,-18.963737 19.30326,19.543727 z M 105.49611,26.40513 73.560708,26.391382 91.283087,42.325599 Z m -44.099891,3.158172 -23.469474,10.737817 17.510088,0.50684 z"
       id="path1"
       sodipodi:nodetypes="ccccccccccccccccccccccccccccccccccccccccccccccccccccccccccccccccccccccccccccccccccccccccccccccccccccccccccccccccccccccccccccccccccccccccccccccccccccccccccc"
       inkscape:label="car" /><text
       xml:space="preserve"
       transform="matrix(0.2391777,0,0,0.2391777,-40.508038,20.718719)"
       id="text15"
       style="font-style:normal;font-variant:normal;font-weight:normal;font-stretch:normal;font-size:192px;line-height:0;font-family:'Agency FB';-inkscape-font-specification:'Agency FB';white-space:pre;shape-inside:url(#rect15);shape-padding:4.24264;display:inline;fill:#2137aa;fill-opacity:1;stroke:none;stroke-width:4.51654;stroke-linecap:round;stroke-linejoin:round;stroke-opacity:1;paint-order:fill markers stroke"><tspan
         x="73.539062"
         y="466.66008"
         id="tspan1">CarServiceTracker</tspan></text></g></svg>
